<?xml version="1.0" encoding="utf-8"?>
<!-- Generator: Adobe Illustrator 16.0.0, SVG Export Plug-In . SVG Version: 6.00 Build 0)  -->
<!DOCTYPE svg PUBLIC "-//W3C//DTD SVG 1.1//EN" "http://www.w3.org/Graphics/SVG/1.1/DTD/svg11.dtd">
<svg version="1.1" xmlns="http://www.w3.org/2000/svg" xmlns:xlink="http://www.w3.org/1999/xlink" x="0px" y="0px"
	 width="297.666px" height="83.199px" viewBox="0 0 297.666 83.199" enable-background="new 0 0 297.666 83.199"
	 xml:space="preserve">
<g id="cabecera_y_footer">
</g>
<g id="MDE_SAWETO">
	<g id="mde_saweto" display="none">
		<g display="inline">
			<defs>
				<rect id="SVGID_33_" x="1491.511" y="744.719" width="915.559" height="169.893"/>
			</defs>
			<linearGradient id="SVGID_2_" gradientUnits="userSpaceOnUse" x1="2026.0557" y1="1137.1865" x2="1864.0989" y2="488.3948">
				<stop  offset="0" style="stop-color:#432918"/>
				<stop  offset="0.7758" style="stop-color:#579F32"/>
			</linearGradient>
			<use xlink:href="#SVGID_33_"  overflow="visible" fill="url(#SVGID_2_)"/>
			<clipPath id="SVGID_4_">
				<use xlink:href="#SVGID_33_"  overflow="visible"/>
			</clipPath>
		</g>
	</g>
	<g>
		<defs>
			<rect id="SVGID_49_" width="297.666" height="83.199"/>
		</defs>
		<use xlink:href="#SVGID_49_"  overflow="visible" fill="#3E7C16"/>
		<clipPath id="SVGID_6_">
			<use xlink:href="#SVGID_49_"  overflow="visible"/>
		</clipPath>
		<path clip-path="url(#SVGID_6_)" fill="#579F32" d="M6.417,77.825c0.071,2.66,0.517,5.28,0.517,7.946
			c-0.004,2.919,0.147,5.86,0.158,8.784c0.02,4.627,0.157,9.265,0.086,13.895c-0.1-0.286-0.204-0.57-0.302-0.86
			c-0.108-1.164-0.212-2.322-0.323-3.472c-0.615-6.406-1.237-12.861-1.732-19.29c-0.218-2.814-0.69-5.587-1.185-8.313
			c-0.238-1.31-0.54-2.676-0.813-4.056c0.044-0.623,0.087-1.248,0.136-1.874c0.258-3.294,0.338-7.277,1.253-10.302
			c0.024-0.077-0.041-0.169-0.081-0.099c-1.188,2.153-1.749,5.386-2.19,8.123c-0.589,3.663-1.341,7.205-1.708,10.962
			c-0.683,6.987,0.2,14.183,1.674,20.81c0.005,0.022,0.011,0.044,0.016,0.068c0.13,2.064,0.138,4.16,0.155,6.144
			c0.025,2.865-0.004,5.743-0.081,8.618l2.472-0.016c0.013-1.256,0.018-2.514-0.001-3.769c0.127,1.249,0.23,2.505,0.305,3.767
			l4.958-0.034c-0.078-0.176-0.156-0.347-0.233-0.521c0.109-1.378,0.175-2.762,0.213-4.157c0.14,1.562,0.296,3.117,0.459,4.676
			l2.58-0.019c-0.302-2.835-0.591-5.672-0.859-8.509c-0.093-0.967-0.181-1.93-0.261-2.897c0.435,2.255,0.948,4.485,1.488,6.7
			c-0.031,1.566-0.049,3.136-0.057,4.705l5.109-0.036c0.11-1.917,0.213-3.837,0.321-5.753c-0.028,1.912,0.015,3.829,0.124,5.75
			l11.543-0.078c-0.279-1.007-0.551-2.02-0.799-3.043c-0.172-3.127-0.144-6.3,0.011-9.453c0.259,0.886,0.529,1.768,0.813,2.648
			c0.546,1.666,1.126,3.311,1.732,4.932c0,0.889-0.006,1.774-0.017,2.66c-0.617-1.875-1.169-3.804-1.439-5.744
			c-0.054-0.396-0.391-0.251-0.415,0.09c-0.17,2.442,0.39,4.807,0.8,7.129c0.046,0.258,0.097,0.515,0.146,0.775l12.26-0.085
			c-0.172-1.234-0.319-2.479-0.429-3.728c0.12-4.603,0.111-9.22,0.093-13.808l-0.001-0.203c0.07-1.249,0.144-2.501,0.206-3.75
			c0.075,4.566,0.478,9.112,1.063,13.618c0.02,1.703,0.093,3.402,0.221,5.086c0.071,0.937,0.158,1.858,0.254,2.775l3.576-0.025
			c-0.602-2.866-1.127-5.772-1.541-8.721c-0.038-3.339,0.105-6.679,0.433-9.974c0.281-2.82,0.503-5.683,0.857-8.483
			c0.161-1.269,0.282-2.559,0.415-3.838c0.103-1.003,0.241-3.454,0.836-4.458c0.062,0.515,0.123,1.03,0.193,1.539
			c-0.262,1.514-0.484,3.038-0.633,4.645c-0.282,2.975-0.279,5.994-0.402,8.985c-0.264,6.154,0.553,12.697,1.392,18.694
			c0.075,0.535,0.159,1.066,0.244,1.599l3.86-0.025c-0.004-0.021-0.009-0.037-0.014-0.059c0.043-1.262,0.063-2.536,0.067-3.817
			c0.02,0.128,0.043,0.253,0.066,0.379c-0.011,1.166,0.013,2.329,0.047,3.495l5.598-0.036c-0.023-0.955-0.05-1.909-0.092-2.862
			c0.164,0.958,0.348,1.909,0.54,2.858l10.046-0.068c0.084-0.901,0.182-1.813,0.265-2.727c0.184,0.912,0.38,1.813,0.586,2.721
			l5.9-0.041c-0.353-1.357-0.724-2.702-1.107-4.024c-0.356-1.879-0.666-3.74-0.524-3.761c0.386-0.059,0.388-1.004-0.006-0.958
			c-0.353,0.043-0.539,0.374-0.636,0.83c-0.008-0.027-0.016-0.055-0.025-0.086c0.164-2.046,0.368-4.094,0.627-6.129
			c0.285-2.254,0.655-4.484,1.079-6.693c0.463,3.356,0.995,6.691,1.573,9.972c0.156,0.892,0.316,1.779,0.478,2.668
			c-0.234-0.21-0.612,0.112-0.495,0.589c0.6,2.474,1.003,5.005,1.258,7.578l6.664-0.046c-0.218-1.544-0.448-3.081-0.685-4.611
			c-0.255-1.635-0.514-3.264-0.78-4.891c0.07-0.256,0.155-0.508,0.259-0.752c0.194-0.444-0.253-0.84-0.456-0.438
			c-0.81-4.88-1.688-9.735-2.665-14.543c-0.604-2.979-1.335-5.875-2.058-8.782c0.198-0.763,0.396-1.521,0.594-2.275
			c0.402-1.542,0.802-3.092,1.19-4.65c0.433,3.02,0.778,6.021,1.106,9.088c0.741,6.972,1.453,13.942,2.283,20.898
			c0.438,3.645,0.867,7.295,1.25,10.956l4.688-0.033c-0.067-0.358-0.141-0.713-0.204-1.072c-0.001-3.004,0.066-6.009,0.15-8.991
			c0.077-2.604,0.2-5.208,0.376-7.806c0.389,2.692,0.81,5.368,1.287,8.023c0.08,2.128,0.359,4.308,0.426,6.417
			c0.033,1.139,0.067,2.275,0.095,3.415l9.181-0.063c-0.204-1.046-0.413-2.084-0.623-3.101c-0.068-0.887-0.123-1.781-0.157-2.678
			c0.127,0.953,0.261,1.902,0.402,2.848c0.147,0.98,0.31,1.958,0.483,2.931l5.767-0.039c-0.332-1.828-0.65-3.66-0.948-5.503
			c0.1-1.187,0.198-2.374,0.304-3.563c0.588,2.977,1.05,6.007,1.455,9.059l7.751-0.053c-0.303-1.598-0.607-3.197-0.922-4.789
			c0.021-1.221,0.04-2.437,0.052-3.657c0.009-0.617,0.016-1.237,0.021-1.857c0.739,3.382,1.375,6.819,1.912,10.296l6.312-0.042
			c-0.653-3.341-1.292-6.685-1.983-10.005c-0.131-0.618-0.259-1.229-0.396-1.84c0.833,2.992,1.684,5.99,2.576,8.938
			c0.293,0.971,0.595,1.936,0.898,2.898l9.832-0.068c-0.247-1.853-0.505-3.7-0.772-5.541c-1.115-7.692-2.404-15.403-4.189-22.799
			c-0.11-0.877-0.227-1.753-0.353-2.625c0.482,2.036,0.962,4.077,1.436,6.122c1.573,6.757,3.041,13.582,4.566,20.365
			c0.149,0.648,0.292,1.303,0.433,1.957c-0.009,0.401-0.021,0.806-0.034,1.208c-0.014,0.433-0.034,0.87-0.049,1.308l5.253-0.038
			c0.03-0.42,0.064-0.84,0.095-1.257c0.073,0.42,0.147,0.836,0.224,1.256l2.154-0.014c-0.054-0.233-0.106-0.464-0.158-0.698
			c-0.587-2.728-1.16-5.487-1.704-8.259c0.018-0.319,0.038-0.64,0.055-0.959c0.617,2.709,1.224,5.422,1.819,8.144
			c0.127,0.593,0.253,1.18,0.377,1.77l2.616-0.019c-0.084-0.354-0.168-0.711-0.254-1.063c-0.284-3.932-0.449-7.868-0.603-11.807
			c0.188,0.843,0.368,1.685,0.549,2.526c0.742,3.431,1.464,6.868,2.119,10.331l5.159-0.036c-0.224-1.729-0.445-3.455-0.647-5.19
			c-0.775-6.656-1.493-13.354-2.464-19.956c-0.506-3.43-1.113-6.804-1.722-10.188c-0.147-0.805-1.546-8.118-1.695-8.084
			c0.118-0.027,0.115-0.352-0.003-0.374c-0.038-0.01-0.075-0.019-0.112-0.027c-0.082-0.018-0.185,0.057-0.176,0.213
			c0.754,11.579,2.13,23.146,3.288,34.643c0.262,2.614,0.544,5.225,0.83,7.835c-0.164-0.835-0.327-1.666-0.5-2.497
			c-0.134-1.057-0.266-2.116-0.396-3.173c-0.804-6.674-1.47-13.393-2.266-20.066c-0.431-3.601-0.804-7.232-1.135-10.855
			c-0.163-1.778-0.366-3.544-0.512-5.328c-0.074-0.937-0.486-3.254-0.138-4.123c0.07-0.177-0.104-0.39-0.19-0.224
			c-0.227,0.44-0.207,0.851-0.192,1.415c0.045,1.709,0.015,3.406,0.094,5.118c0.182,3.968,0.332,7.938,0.62,11.896
			c0.261,3.587,0.555,7.166,0.872,10.739c-0.69-2.955-1.388-5.906-2.073-8.867c-0.176-2.399-0.392-4.796-0.683-7.187
			c-0.019-0.147-0.175-0.15-0.19,0.002c-0.081,0.986-0.092,1.989-0.077,3.001c-0.152-0.681-0.307-1.355-0.456-2.034
			c-0.183-0.838-0.37-1.668-0.563-2.498c0.003-0.091,0.008-0.185,0.011-0.274c0.072-1.587,0.121-3.188,0.238-4.769
			c0.095-1.302,0.013-5.242,1.011-5.938c0.075-0.052,0.019-0.243-0.057-0.208c-1.152,0.562-1.365,4.493-1.547,6.021
			c-0.1,0.828-0.198,1.654-0.295,2.479c-0.534-2.184-1.087-4.354-1.657-6.521c-0.448-1.696-0.836-3.479-1.348-5.121
			c-0.284-0.908-0.551-1.823-0.828-2.737c-0.324-1.071-0.898-2.056-1.149-3.171c-0.043-0.195-0.238-0.113-0.199,0.089
			c0.264,1.39,0.831,2.65,1.117,4.06c0.39,1.921,0.841,3.908,1.079,5.884c0.485,4.008,1.288,8.108,1.962,12.051
			c0.092,0.544,0.195,1.087,0.29,1.625c-0.127,1.063-0.251,2.122-0.379,3.182c-0.237,1.984-0.449,3.975-0.647,5.974
			c-0.574-1.83-1.166-3.647-1.745-5.472c-0.255-0.79-0.525-1.617-0.814-2.446c0.001-0.748,0.101-1.379,0.392-1.643
			c0.141-0.129,0.014-0.445-0.127-0.336c-0.301,0.233-0.461,0.666-0.546,1.182c-0.072-0.195-0.146-0.392-0.221-0.586
			c-0.138-1.609-0.283-3.218-0.379-4.82c0.034,0.07,0.063,0.141,0.097,0.218c0.025,0.055,0.092,0.021,0.077-0.053
			c-0.134-0.458-0.213-0.939-0.237-1.448c-0.018-0.328-0.317-0.326-0.326,0.004c-0.039,1.314-0.086,2.627-0.135,3.942
			c-0.384-0.817-0.796-1.576-1.239-2.231c-0.096-0.142-0.267,0.049-0.186,0.228c0.553,1.202,0.974,2.611,1.344,4.057
			c-0.16,3.912-0.325,7.827-0.374,11.751c-0.017,1.569-0.035,3.139-0.054,4.708c-1.142-5.383-1.927-10.208-1.177-10.509
			c0.17-0.067,0.095-0.453-0.072-0.403c-1.118,0.333-0.17,5.763-0.095,6.887c0.05,0.714,0.11,1.429,0.181,2.143
			c-0.56-2.327-1.128-4.646-1.705-6.954c-0.871-3.479-1.814-6.907-2.942-10.199c-0.478-1.413-1.08-2.74-1.627-4.09
			c-0.203-0.507-0.453-0.953-0.716-1.379c0.137-1.702,0.208-3.531-0.221-4.926c-0.044-0.15-0.206-0.043-0.167,0.115
			c0.237,0.988-0.222,2.578-0.399,3.574c-0.19-0.307-0.375-0.621-0.541-0.957c-0.006-0.02-0.011-0.039-0.021-0.059
			c-0.035-0.067-0.071-0.132-0.107-0.199c-0.124-0.229-0.309,0.067-0.244,0.298c0.21,0.724,0.465,1.4,0.709,2.092
			c-0.208,1.181-0.433,2.357-0.688,3.511c-0.62,2.759-0.965,5.746-1.252,8.652c-0.109-1.066-0.218-2.13-0.328-3.196
			c-0.175-1.711-0.337-3.474-0.447-5.198c-0.112-1.715-0.469-4.05-0.166-5.727c0.051-0.288-0.215-0.381-0.279-0.118
			c-0.281,1.099-0.193,2.34-0.22,3.511c-0.037,1.804-0.069,3.604-0.018,5.405c0.094,3.403,0.193,6.794,0.405,10.185
			c0.015,0.258,0.037,0.509,0.054,0.764c-0.805-1.958-1.616-3.914-2.449-5.842c0.083-2.442,0.194-4.885,0.443-7.294
			c0.269-2.548,0.529-5.929,1.866-7.664c0.08-0.104-0.031-0.329-0.116-0.23c-1.064,1.243-1.512,3.159-1.966,5.049
			c-0.603,2.503-0.95,5.276-1.176,7.961c-0.471-1.061-0.945-2.117-1.43-3.159c-0.427-0.915-0.867-1.804-1.314-2.688
			c-0.172-2.754-0.298-5.513-0.35-8.277c-0.004-0.282-0.275-0.28-0.279,0.003c-0.019,2.329-0.044,4.643-0.052,6.947
			c-0.735-1.405-1.487-2.786-2.243-4.17c-0.204-0.374-0.417-0.736-0.629-1.099c-0.069-1.591-0.106-3.182-0.092-4.774
			c0.002-0.263-0.25-0.256-0.257,0.001c-0.04,1.372-0.054,2.742-0.054,4.107c-0.453-0.733-0.913-1.462-1.355-2.209
			c-0.193-0.317-1.289-2.512-1.264-2.515c0.078-0.011,0.077-0.185-0.001-0.194c-0.08-0.012-0.157-0.021-0.233-0.032
			c-0.056-0.007-0.09,0.091-0.079,0.163c0.137,0.863,0.602,1.663,0.922,2.393c0.664,1.496,1.252,3.061,1.892,4.578
			c0.044,0.103,0.089,0.21,0.132,0.317c0.054,4.36,0.224,8.711,0.239,13.095c-0.212-0.837-0.425-1.669-0.641-2.499
			c-0.704-2.701-1.5-5.536-2.51-7.991c-0.523-1.273-0.925-2.67-1.463-3.935c-0.189-0.446-1.596-3.209-1.455-3.722
			c0.032-0.114-0.065-0.204-0.107-0.101c-0.111,0.261-0.15,0.34-0.037,0.674c0.388,1.157,0.743,2.294,1.052,3.515
			c0.783,3.103,1.372,6.275,2.063,9.426c0.512,2.325,0.994,4.669,1.474,7.018c-0.658,0.356-0.41,1.534-0.272,2.376
			c0.425,2.559,1.167,5.021,1.816,7.475c-0.02,1.345-0.044,2.691-0.075,4.04c-0.091-0.48-0.182-0.959-0.274-1.438
			c-1.343-7.018-2.59-14.078-3.929-21.099c-0.695-3.656-1.49-7.273-2.195-10.929c-0.084-0.427-0.166-0.861-0.254-1.3
			c0-0.071-0.002-0.142-0.002-0.208c-0.037-0.441-0.041-0.883-0.012-1.327c-0.04-0.093-0.071-0.17-0.101-0.234
			c0.03-0.015,0.054-0.039,0.061-0.091c0.004-0.056,0.012-0.114,0.019-0.176c0.027-0.229-0.171-0.31-0.223-0.095
			c-0.031,0.141-0.057,0.289-0.088,0.434c-0.438-2.066-0.945-4.143-1.602-5.966c-0.075-0.213-0.27-0.023-0.201,0.19
			c0.749,2.341,1.123,5.063,1.489,7.684c-0.26,2.079-0.328,4.323-0.435,6.329c-0.167,3.138-0.339,6.234-0.34,9.373
			c-0.535-1.68-1.095-3.339-1.669-4.993c-0.006-0.994-0.009-1.988-0.006-2.979c0.011-3.222-0.178-7.334,0.572-10.348
			c0.028-0.104-0.084-0.172-0.114-0.072c-0.699,2.384-0.699,5.423-0.834,8.009c-0.066,1.271-0.122,2.542-0.166,3.813
			c-0.554-1.544-1.26-3.176-1.852-4.864c0.112-0.888,0.264-1.751,0.482-2.577c0.063-0.234-0.15-0.442-0.226-0.202
			c-0.196,0.652-0.365,1.33-0.513,2.022c-0.471-1.458-0.833-2.952-0.916-4.478c-0.011-0.215-0.223-0.218-0.215,0.003
			c0.054,1.958,0.493,3.689,0.942,5.439c-0.345,1.911-0.546,3.913-0.685,5.854c-0.291,3.982-0.561,7.924-0.674,11.934
			c-0.021,0.743-0.032,1.49-0.032,2.233c-0.262-0.926-0.518-1.86-0.764-2.801c0.124-2.913,0.166-5.842,0.442-8.736
			c0.098-1.025,0.241-2.073,0.317-3.107c0.101-1.39,0.052-3.718,0.884-4.646c0.094-0.105,0.009-0.35-0.094-0.248
			c-0.976,0.922-1.181,3.163-1.376,4.775c-0.175,1.453-0.586,2.871-0.775,4.34c-0.149,1.176-0.31,2.342-0.453,3.517
			c-0.625-2.493-1.233-5.015-1.717-7.568c-0.624-3.303-1.705-8.389-0.499-11.615c0.064-0.162-0.095-0.299-0.161-0.147
			c-0.901,2.107-0.795,5.005-0.778,7.455c0.024,3.444,0.554,6.873,1.082,10.2c0.42,2.654,0.92,5.248,1.485,7.801
			c-0.089,1.119-0.173,2.239-0.25,3.359c-0.272-0.969-0.549-1.934-0.844-2.891c-0.784-2.566-1.616-5.604-2.77-7.821
			c-0.382-0.734-0.723-1.56-1.052-2.392c0.495-3.095,1.083-6.139,1.576-9.231c0.282-1.788,0.641-3.599,1.046-5.324
			c0.281-1.187,0.626-3.678,1.513-4.118c0.061-0.029,0.05-0.179-0.016-0.177c-1.319,0.04-1.852,3.157-2.266,4.664
			c-1.023,3.708-1.93,7.494-2.72,11.344c-0.032,0.158-0.064,0.318-0.095,0.478c-0.592-1.398-1.299-3.096-1.474-4.675
			c-0.023-0.239-0.264-0.175-0.26,0.059c0.04,2.233,0.803,4.313,1.387,6.37c-0.302,1.554-0.584,3.106-0.851,4.667
			c-0.87-3.738-1.772-7.466-2.504-11.259c-0.044-0.229-0.268-0.132-0.229,0.102c0.831,4.896,1.486,9.864,2.15,14.831
			c-0.586,3.896-1.045,7.829-1.339,11.844c-1.531-12.023-2.901-24.733-3.411-36.604c0.005,0.166,0.16,0.165,0.163-0.001
			c0.003-0.062,0.003-0.122,0.006-0.185c0.004-0.153-0.121-0.17-0.167-0.069c-0.27,0.592-0.166,1.262-0.193,1.982
			c-0.071,1.748-0.149,3.492-0.11,5.24c0.081,3.485,0.205,7.138,0.079,10.616c-0.063,1.753,0.119,3.684,0.195,5.441
			c0.063,1.504,0.157,3.001,0.26,4.494c-0.226-1.41-0.462-2.817-0.715-4.213c-0.563-3.127-1.104-6.273-1.626-9.418
			c-0.25-1.514-0.618-2.971-0.98-4.425c-0.032-0.134-0.234-0.76-0.443-1.492c0.335-1.388,0.659-2.779,0.954-4.187
			c0.582-2.763,1.558-5.777,1.625-8.729c-0.002-0.079-0.085-0.1-0.093-0.017c-0.494,3.846-1.888,7.571-2.945,11.086
			c-0.074-0.414-0.095-0.736-0.02-0.855c0.077-0.127-0.023-0.338-0.12-0.244c-0.319,0.322-0.253,1.17-0.123,1.964
			c-0.672,2.226-1.354,4.448-2.025,6.679c-0.316-1.251-0.663-2.494-1.045-3.695c-0.336-1.068-0.834-2.351-1.128-3.651
			c1.4-3.756,2.916-7.397,4.361-11.113c0.707-1.818,1.204-3.778,1.863-5.632c0.65-1.838,1.29-4.347,2.46-5.454
			c0.058-0.055,0.004-0.188-0.052-0.142c-1.066,0.822-1.358,2.087-2.061,3.487c-0.831,1.655-1.442,3.506-2.123,5.313
			c-1.39,3.675-3.134,7.079-4.736,10.58c-0.054-0.013-0.112,0.026-0.138,0.129c-0.021,0.099-0.04,0.196-0.059,0.298
			c-0.304,0.674-0.604,1.348-0.891,2.034c-0.225,0.532-0.445,1.067-0.665,1.608c-0.152-0.566-0.301-1.131-0.448-1.701
			c-0.12-0.471-0.304-0.944-0.451-1.402c-0.108-0.335-0.655-0.496-0.175-0.329c0.052,0.021,0.08-0.089,0.037-0.133
			c-0.1-0.142-0.196-0.289-0.294-0.433c-0.072-0.146-0.24,0.012-0.195,0.182c0.428,1.674,0.75,3.38,1.011,5.11
			c-0.66,1.657-1.296,3.341-1.906,5.048c-0.022-0.607-0.045-1.212-0.067-1.818c-0.093-2.67-0.721-6.188-0.025-8.688
			c0.038-0.142-0.088-0.262-0.132-0.12c-0.667,1.996-0.469,4.219-0.537,6.424c-0.062,2.153-0.067,4.326-0.045,6.499
			c-0.93,2.715-1.804,5.482-2.631,8.281c-0.072-0.197-0.145-0.395-0.218-0.593c-0.679-4.862-1.397-10.333-1.216-10.364
			c0.058-0.013,0.058-0.135,0-0.147c-0.04-0.006-0.082-0.011-0.118-0.019c-0.036-0.004-0.054,0.048-0.06,0.094
			c-0.124,2.485,0.064,5.041,0.271,7.549c-0.934-2.242-2.026-4.354-3.214-6.268c-0.264-0.427-0.537-0.892-0.824-1.362
			c-0.156-1.952-0.292-3.909-0.445-5.853c-0.319-4.072-0.673-8.331,0.001-12.345c0.021-0.114-0.084-0.155-0.107-0.046
			c-0.696,3.461-0.718,7.262-0.573,10.867c0.048,1.15,0.088,2.302,0.127,3.454c-0.034,0.003-0.067,0.027-0.091,0.088
			c-0.174,0.447-0.327,0.915-0.473,1.393c-0.576-0.804-1.185-1.51-1.824-1.957c-0.087-0.063-0.183,0.063-0.131,0.205
			c0.042,0.12,0.085,0.239,0.126,0.36c0.057,0.158,0.196,0.019,0.15-0.14c-0.233-0.774,0.38,0.939,0.408,1.002
			c0.241,0.548,0.542,1.062,0.798,1.591c0.042,0.08,0.077,0.168,0.113,0.25c-0.195,0.774-0.375,1.568-0.554,2.355
			c-0.355-1.249-0.698-2.502-1.054-3.748c-0.198-0.684-1.706-3.968-1.277-4.595c0.057-0.085-0.017-0.223-0.083-0.168
			c-0.776,0.677,0.227,2.839,0.436,3.764c0.54,2.372,0.946,4.819,1.362,7.254c-0.311,1.166-0.535,2.475-0.716,3.808
			c-0.902-2.62-1.99-5.127-3.102-7.551c-0.166-1.583-0.347-3.159-0.523-4.737c-0.138-1.28-0.543-3.615-0.27-4.955
			c0.032-0.157-0.107-0.224-0.161-0.104c-0.294,0.663-0.21,1.313-0.242,2.122c-0.058,1.573,0.021,3.121,0.06,4.692
			c0.004,0.19,0.017,0.377,0.021,0.569c-0.12-0.255-0.241-0.511-0.361-0.765c-0.046-0.108-0.158-0.01-0.112,0.109
			c0.172,0.436,0.331,0.882,0.494,1.328c0.095,2.931,0.267,5.87,0.491,8.779c-0.526-2.191-1.116-4.35-1.765-6.472
			c-0.373-1.196-0.773-2.376-1.194-3.54c-0.004-0.681-0.018-1.361-0.026-2.043c-0.014-1.473-0.011-2.932,0.019-4.406
			c0.029-1.551,0.346-2.98,0.417-4.507c0.008-0.181-0.161-0.171-0.177,0.001c-0.11,1.535-0.505,2.962-0.618,4.51
			c-0.111,1.555-0.217,3.102-0.274,4.661c-0.747-1.945-1.539-3.853-2.335-5.728c-0.127-0.293-0.254-0.58-0.382-0.872
			c0.08-0.092,0.158-0.188,0.243-0.278c0.058-0.058,0.004-0.187-0.051-0.141c-0.094,0.078-0.188,0.152-0.279,0.223
			c-0.549-1.225-1.125-2.418-1.698-3.619c-0.775-1.612-1.689-3.03-2.32-4.798c-0.033-0.101-0.131-0.011-0.095,0.092
			c1.007,3.038,2.433,5.695,3.408,8.795c0.007,0.024,0.015,0.049,0.022,0.071c-0.517,0.41-1.008,0.833-1.488,1.402
			c-0.057-0.074-0.167-0.06-0.178,0.08c-0.006,0.06-0.02,0.12-0.026,0.18c-0.049,0.062-0.099,0.119-0.147,0.184
			c-1.193,1.635-2.458,3.192-3.708,4.734c-0.261,0.326-0.526,0.646-0.79,0.971c-0.132-2.262-0.314-4.51-0.614-6.744
			c-0.199-1.494-0.438-2.937-0.722-4.4c-0.269-1.407-0.82-2.668-1.083-4.041c-0.034-0.166-0.209-0.14-0.199,0.044l0.011,0.185
			c0.003,0.07,0.031,0.104,0.061,0.122c-0.024,0.093-0.04,0.19-0.026,0.249c0.123,0.566,0.217,1.083,0.281,1.676
			c0.172,1.619,0.307,3.221,0.316,4.861c0.022,3.16-0.033,6.311-0.095,9.472c-0.006,0.375-0.007,0.747-0.014,1.121
			c-0.911,1.12-1.816,2.253-2.692,3.435c-0.241-2.896-0.454-5.79-0.611-8.678c-0.439-7.905-1.601-15.705-2.051-23.592
			c-0.008-0.104-0.103-0.105-0.101,0.002c-0.018,3.801,0.128,7.67,0.191,11.48c0.075,4.308-0.043,8.619,0.052,12.929
			c0.001,0.061,0.004,0.122,0.004,0.181c-0.349-1.752-0.725-3.49-1.141-5.207c-0.428-1.765-0.868-3.51-1.32-5.266
			c-0.388-1.535-1.348-2.897-1.1-4.715c0.021-0.138-0.089-0.202-0.14-0.092c-0.708,1.608,0.055,4.343,0.304,6.057
			c0.569,3.924,1.032,7.887,1.606,11.81c0.457,3.138,0.914,6.279,1.364,9.422c-0.083,0.13-0.161,0.264-0.243,0.393
			c-0.314-1.047-0.583-2.124-0.735-3.29c-0.022-0.158-0.154-0.097-0.162,0.035c-0.115,1.552,0.011,2.924,0.204,4.381
			c-0.249,0.414-0.497,0.83-0.742,1.249c-0.117-0.803-0.244-1.593-0.397-2.372c-0.413-2.104-0.807-4.203-1.242-6.289
			c-0.008-0.633-0.026-1.268-0.062-1.901c-0.005-0.095-0.087-0.095-0.094,0.001c-0.011,0.31-0.032,0.62-0.051,0.928
			c-0.239-1.112-0.493-2.22-0.771-3.321c-0.348-1.387-0.686-2.751-1.084-4.109c-0.185-0.616-0.369-1.232-0.55-1.853
			c-0.067-0.354-0.181-0.673-0.335-0.951c-0.086-0.129-0.16-0.229-0.22-0.312c0.021-0.021,0.034-0.054,0.023-0.104
			c-0.023-0.131-0.048-0.259-0.069-0.388c-0.035-0.198-0.236-0.159-0.23,0.051c0.031,0.934,0.33,1.758,0.487,2.665
			c0.231,1.317,0.487,2.63,0.741,3.938c0.62,3.191,0.991,6.49,1.407,9.755c-0.372,2.414-0.853,4.8-1.338,7.179
			c-0.294-1.733-0.549-3.491-0.767-5.295c-0.749-6.235-1.28-12.583-1.939-18.83c-0.024-0.218-0.208-0.133-0.223,0.051
			c-0.223,2.95-0.024,6.102-0.074,9.084c-0.049,3.166-0.081,6.37,0.083,9.534c-0.175-0.749-0.359-1.496-0.562-2.241
			c-0.381-1.394-0.811-2.74-1.252-4.093c-0.153-0.473-1.047-3.915-1.057-3.912c0.087-0.014,0.085-0.198-0.001-0.21
			c-0.039-0.008-0.077-0.014-0.117-0.019c-0.042-0.007-0.08,0.062-0.08,0.126c0.088,2.265,0.578,4.287,0.865,6.505
			c0.132,0.995,0.246,1.996,0.356,2.999c-0.044-0.282-0.09-0.563-0.138-0.844c-0.604-3.567-1.155-7.128-1.88-10.647
			c-0.238-1.145-0.629-5.036-1.602-5.449c-0.083-0.034-0.14,0.159-0.058,0.225c0.598,0.485,0.729,3.943,0.785,4.648
			c0.14,1.595,0.283,3.203,0.434,4.798c0.39,3.991,0.599,8.012,0.992,12c0.511,5.249,1.19,10.383,2.074,15.462
			c-0.667,1.813-1.248,3.713-1.765,5.663c0.23-6.546-0.34-13.262-0.994-19.697c-0.359-3.52-0.833-6.89-1.431-10.316
			c-0.643-3.699-1.541-7.121-1.712-11.004c-0.008-0.164-0.165-0.166-0.166,0.001c-0.057,5.916,0.523,11.875,0.769,17.777
			c0.075,1.82,0.178,3.636,0.292,5.444c-0.43,3.114-0.817,6.237-1.09,9.371c0.241-5.838,0.298-11.726-0.003-17.535
			c-0.186-3.513-0.517-7.149-1.069-10.569c-0.283-1.744-0.428-3.522-0.771-5.242c-0.307-1.559-0.351-3.237-0.687-4.761
			c-0.032-0.157-0.186-0.091-0.157,0.07c0.444,2.686,0.399,5.82,0.525,8.578c0.155,3.422,0.345,6.903,0.232,10.332
			c-0.226,6.961-0.302,13.924-0.681,20.873c-0.134,2.422-0.269,4.845-0.412,7.27c-0.06-0.234-0.116-0.47-0.173-0.704
			c0.04-1.699,0.09-3.397,0.146-5.09c0.208-6.442,0.341-12.838,0.235-19.285c-0.05-3.033-0.39-6.032-0.496-9.056
			c-0.053-1.538-0.296-3.03-0.432-4.554c-0.083-0.96-0.502-3.348-0.071-4.313c0.037-0.084-0.044-0.182-0.089-0.109
			c-0.677,1.106-0.39,3.82-0.36,5.192c0.072,3.298-0.107,6.61-0.319,9.891c-0.369,5.688-0.587,11.4-0.828,17.109
			c-0.003-0.016-0.006-0.034-0.008-0.05c-1.087-6.188-1.732-12.682-2.207-19.039c-0.442-5.965-0.186-11.984-0.178-17.962
			c0-0.099-0.104-0.124-0.114-0.024c-0.506,5.229-0.98,10.42-1.238,15.691C9.7,76.882,9.631,76.07,9.561,75.257
			c-0.113-1.307-0.236-2.606-0.366-3.914c-0.076-0.74-0.156-1.484-0.241-2.226c-0.102-0.866-0.586-2.337-0.376-3.197
			c0.021-0.102-0.072-0.147-0.103-0.07c-0.226,0.512-0.175,0.827-0.097,1.416c0.244,1.88,0.344,3.784,0.387,5.695
			c0.075,3.379,0.089,6.744-0.019,10.12C8.687,85.033,8.668,87,8.677,88.973c-0.086-0.638-0.179-1.273-0.29-1.907
			c-0.255-1.494-0.522-2.929-0.839-4.399c-0.33-1.538-0.813-3.237-0.957-4.843C6.578,77.654,6.413,77.645,6.417,77.825
			 M2.406,80.492c0.072-2.141,0.18-4.272,0.314-6.404c0.076,0.626,0.147,1.249,0.191,1.874c0.241,3.246,0.25,6.404,0.269,9.663
			c0.017,2.939,0.105,5.878,0.239,8.812C2.628,89.897,2.244,85.183,2.406,80.492 M131.346,108.717
			c0.173,1.308,0.342,2.614,0.51,3.923c-0.146-0.53-0.295-1.056-0.451-1.581c-0.031-0.92-0.071-1.828-0.107-2.729
			C131.315,108.459,131.329,108.586,131.346,108.717 M142.353,88.226c0.02-0.496,0.043-0.994,0.066-1.491
			c0.458,2.305,0.943,4.595,1.436,6.881c-0.023,1.249-0.049,2.497-0.074,3.746c-0.043,1.794-0.065,3.594-0.073,5.397
			c-0.546-2.276-1.117-4.541-1.734-6.777C142.111,93.4,142.242,90.814,142.353,88.226 M138.343,93.739
			c0.279,2.92,0.632,5.832,1.029,8.732c-0.165,2.006-0.329,4.005-0.499,6.003c-0.037,0.435-0.076,0.878-0.114,1.317
			c-0.169-0.68-0.364-1.441-0.566-2.272c0.035-4.285-0.029-8.581-0.147-12.864c-0.059-2.033-0.126-4.063-0.221-6.091
			C137.981,90.294,138.181,92.019,138.343,93.739 M127.567,75.903c0.042,0.166,0.08,0.326,0.114,0.49
			c0.061,0.877,0.103,1.762,0.144,2.638c-0.101-0.343-0.198-0.681-0.302-1.019c-0.019-0.057-0.051-0.078-0.083-0.08
			C127.481,77.256,127.523,76.579,127.567,75.903 M127.083,84.043c0.11-1.857,0.212-3.719,0.322-5.576
			c0.199,0.778,0.365,1.577,0.506,2.396c0.003,0.003,0.003,0.01,0.003,0.01c0.147,2.679,0.25,5.356,0.387,8.035
			c0.25,4.812,0.373,9.628,0.494,14.449c-0.693-1.851-1.415-3.672-2.142-5.476C126.593,93.262,126.813,88.656,127.083,84.043
			 M121.225,91.585c0.842,2.138,1.684,4.27,2.532,6.396c0.161,0.399,0.315,0.797,0.476,1.193c0.024,1.875,0.092,3.749,0.212,5.631
			c0.027,0.364,0.056,0.722,0.081,1.084c-0.697-1.897-1.409-3.786-2.116-5.68c-0.043-0.117-0.622-1.542-1.229-3.201
			C121.182,95.202,121.194,93.395,121.225,91.585 M119.835,92.734c-0.137-0.65-0.15-1.089,0.03-1.149
			c0.013-0.006,0.021-0.016,0.031-0.022C119.874,91.954,119.855,92.345,119.835,92.734 M120.059,88.623
			c-0.052,0.844-0.097,1.686-0.141,2.528c-0.024-0.032-0.055-0.056-0.095-0.046c-1.01,0.196-0.476,2.879-0.108,4.409
			c-0.005,0.141-0.015,0.284-0.02,0.426c-0.119-0.421-0.238-0.842-0.359-1.261c-0.395-3.55-0.777-7.111-1.097-10.678
			C118.845,85.542,119.455,87.082,120.059,88.623 M116.972,80.782c0.024,0.063,0.047,0.124,0.07,0.188
			c0.029,2.288,0.084,4.581,0.189,6.893c0.019,0.36,0.037,0.722,0.057,1.081c-0.106,0.045-0.207,0.225-0.193,0.408
			c0.076,1.012,0.222,2.024,0.386,3.029c0.302,4.625,0.721,9.234,1.143,13.837c-0.308-1.582-0.625-3.159-0.952-4.731
			c-0.73-3.527-1.503-7.041-2.321-10.529c-0.046-1.826-0.11-3.648-0.207-5.47c-0.198-3.918-0.561-7.834-0.813-11.753
			C115.235,76.06,116.056,78.467,116.972,80.782 M111.417,100.501c0.084,0.481,0.164,0.964,0.249,1.444
			c0.598,3.377,1.229,6.741,1.879,10.096c-0.549-2.282-1.132-4.544-1.726-6.789c-0.267-1.014-0.528-2.032-0.792-3.05
			c0.006-0.804,0.077-1.475,0.279-1.545C111.368,100.634,111.403,100.572,111.417,100.501 M108.349,80.593
			c0.892,6.573,1.894,13.112,3.016,19.598c-0.029-0.039-0.066-0.07-0.112-0.075c-0.259-0.03-0.474,0.138-0.659,0.417
			c-0.548-2.132-1.097-4.266-1.653-6.396c-0.506-3.378-0.882-6.808-1.108-10.243c-0.226-3.476-0.327-6.943-0.479-10.421
			c-0.014-0.288-0.025-0.573-0.039-0.858C107.673,75.269,107.986,77.943,108.349,80.593 M106.585,94.809
			c0.071,0.546,0.149,1.093,0.232,1.639c-0.517-1.381-1.071-2.74-1.45-4.223h0.001c0.151,0.016,0.184-0.31,0.07-0.423
			c-0.103-0.104-0.204-0.205-0.307-0.306c-0.165-0.163-0.335,0.061-0.352,0.32c-0.095,1.585,0.419,3.44,0.696,4.953
			c0.198,1.077,0.376,2.165,0.563,3.25c-0.129,0.502-0.251,1.009-0.361,1.524c-0.728-5.557-1.196-11.163-1.438-16.824
			C105.002,88.095,105.783,91.457,106.585,94.809 M101.398,79.849c0.024-2.261-0.027-4.691,0.152-7.024
			c0.129,0.54,0.256,1.086,0.364,1.645c0.436,2.25,0.979,4.46,1.507,6.668c-0.012,0.858-0.019,1.717-0.017,2.577
			c0.006,3.627,0.158,7.266,0.43,10.883c-0.622-3.452-1.106-7.002-0.63-10.421c0.031-0.214-0.172-0.3-0.209-0.09
			c-0.632,3.621-0.612,7.503-0.44,11.309c-0.162,1.522-0.213,3.072-0.192,4.626c-0.037-0.115-0.076-0.235-0.114-0.354
			c-0.333-3.145-0.568-6.312-0.676-9.465C101.457,86.747,101.369,83.309,101.398,79.849 M98.858,96.664
			c0.458,1.752,0.947,3.494,1.455,5.226c0.134,1.521,0.293,3.037,0.472,4.542c-0.178-0.083-0.403,0.064-0.402,0.446
			c-0.001,0.135-0.001,0.268,0,0.4c-0.499-2.308-1.019-4.604-1.569-6.877C98.818,99.155,98.835,97.909,98.858,96.664 M92.109,84.015
			c0.567,2.156,1.219,4.288,1.778,6.438c1.045,4.023,2.002,8.084,2.908,12.18c-0.024,0.798-0.043,1.594-0.057,2.395
			c-0.052,2.862-0.072,5.729-0.04,8.59c-0.425-3.104-1.026-6.137-1.683-9.21c-0.123-0.573-0.671-0.336-0.576,0.257
			c0.014,0.078,0.023,0.157,0.035,0.238c-1.086-5.016-1.982-10.122-3.063-15.141C91.612,87.836,91.842,85.919,92.109,84.015
			 M81.414,102.32c0.471,3.087,0.953,6.173,1.404,9.272c-0.019,0.596-0.029,1.182-0.04,1.738c-0.137-0.997-0.308-1.975-0.514-2.955
			c-0.284-1.354-0.825-2.38-1.264-3.566c-0.084-0.425-0.17-0.854-0.255-1.283c-1.163-5.852-2.203-11.791-3.208-17.72
			c0.309-1.322,0.629-2.631,0.958-3.938C79.511,89.998,80.475,96.162,81.414,102.32 M76.135,71.634
			c0.035-0.099,0.072-0.193,0.109-0.291c0.208,1.133,0.497,2.251,0.688,3.248c0.375,1.961,0.699,3.941,1.021,5.926
			c-0.143,0.481-0.284,0.962-0.422,1.444c-0.206,0.725-0.405,1.447-0.609,2.17c-0.53-3.196-1.023-6.41-1.642-9.567
			c-0.02-0.11-0.049-0.217-0.069-0.326C75.514,73.364,75.822,72.497,76.135,71.634 M74.48,76.37
			c0.287,2.691,0.489,5.415,0.749,8.123c0.137,1.423,0.293,2.851,0.461,4.28c-0.831,3.271-1.577,6.568-2.186,9.953
			c-0.396-4.62-0.652-9.27-1.009-13.894c-0.049-0.627-0.092-1.259-0.13-1.89C73.041,80.731,73.747,78.54,74.48,76.37
			 M67.284,106.009c-0.11-0.528-0.223-1.054-0.33-1.577c0.12-0.594,0.238-1.182,0.363-1.771c0.267,1.874,0.413,3.793,0.469,5.729
			C67.618,107.585,67.449,106.795,67.284,106.009 M72.261,107.839c-0.037,0.406-0.074,0.814-0.112,1.226
			c-0.37-1.657-0.706-3.325-1.028-5.003c0.029,0.094,0.057,0.184,0.086,0.276C71.564,105.495,71.916,106.666,72.261,107.839
			 M71.438,86.074c0.104,3.893,0.233,7.783,0.452,11.666c-0.65-2.015-1.318-4.015-2.006-5.986
			C70.378,89.844,70.897,87.951,71.438,86.074 M68.353,97.981c0.38,3.483,0.837,6.905,1.415,10.272
			c-0.017,0.064-0.037,0.129-0.054,0.199c-0.068-0.544-0.149-1.081-0.241-1.61c-0.375-2.146-1.124-3.76-1.81-5.647
			c-0.005-0.017-0.014-0.026-0.021-0.039C67.874,100.094,68.109,99.037,68.353,97.981 M65.867,87.51
			c0.569,1.661,1.122,3.335,1.665,5.016c-0.474,1.722-0.936,3.452-1.374,5.192c-0.114,0.446-0.224,0.892-0.335,1.341
			c-0.021-0.112-0.048-0.222-0.069-0.332c-0.59-5.058-1.097-10.147-1.789-15.176c-0.089-0.631-0.164-1.267-0.236-1.899
			C64.501,83.548,65.197,85.555,65.867,87.51 M62.333,73.997c0.026,0.616,0.049,1.237,0.072,1.855
			c-0.136-0.215-0.279-0.427-0.42-0.636C62.093,74.792,62.208,74.383,62.333,73.997 M61.648,76.769
			c0.302,0.725,0.583,1.468,0.896,2.184c0.053,1.101,0.112,2.197,0.19,3.296c0.117,1.646,0.235,3.292,0.361,4.938
			c-0.62-2.439-1.22-4.896-1.889-7.303C61.312,78.845,61.459,77.78,61.648,76.769 M60.905,84.873
			c1.119,6.128,2.202,12.271,3.333,18.397c0.092,0.477,0.181,0.951,0.273,1.431c-0.534,2.435-1.028,4.886-1.479,7.354
			c0.03-1.505,0.035-3.007,0.007-4.51c-0.115-6.08-0.834-12.158-2.146-17.893c-0.043-0.184-0.09-0.367-0.132-0.55
			C60.796,87.693,60.847,86.285,60.905,84.873 M58.938,89.859c-0.143,1.352-0.25,2.7-0.33,4.048
			c-0.399-2.615-0.773-5.242-1.171-7.865c-0.314-2.086-0.554-4.216-0.781-6.342C57.608,82.953,58.36,86.369,58.938,89.859
			 M54.052,87.728c0.743,3.708,1.311,7.512,1.813,11.315c0.508,3.839,0.878,7.718,1.086,11.61c-0.046-0.151-0.09-0.31-0.133-0.468
			c-0.144-0.566-0.652-2.123-0.433-2.713c0.078-0.206-0.117-0.458-0.22-0.264c-0.551,1.038-0.31,2.767-0.184,4.009
			c0.021,0.221,0.044,0.442,0.065,0.66c-0.237-1.218-0.464-2.442-0.672-3.673c-0.03-0.872-0.045-1.746-0.04-2.627
			c0.008-0.732-0.266-2.782,0.165-3.294c0.126-0.152,0.092-0.496-0.089-0.498c-0.4-0.004-0.657,0.532-0.829,1.236
			c-0.897-6.564-1.408-13.22-1.583-19.92C53.374,84.628,53.736,86.162,54.052,87.728 M50.392,94.275
			c-0.25-3.422-0.522-6.806-0.518-10.172c0.208,1.964,0.353,3.966,0.548,5.901c0.503,5.05,0.799,10.072,0.913,15.15
			C50.942,101.547,50.654,97.917,50.392,94.275 M46.855,70.053c0.009-0.018,0.024-0.04,0.035-0.058
			c0.696-1.083,1.256-2.219,1.949-3.222c1.023,3.319,1.939,6.86,2.709,10.326c0.143,0.643,0.292,1.278,0.445,1.915
			c-0.046,1.741-0.077,3.483-0.084,5.227c-0.001,0.663,0.005,1.325,0.01,1.985c-0.272-1.374-0.583-2.73-0.947-4.053
			c-0.282-1.013-0.557-2.038-0.839-3.07c0.09-0.812,0.201-1.625,0.344-2.435c0.049-0.276-0.217-0.382-0.269-0.119
			c-0.11,0.555-0.216,1.098-0.322,1.637c-0.427-1.555-0.865-3.1-1.341-4.58c-0.054-0.163-0.233-0.045-0.188,0.125
			c0.411,1.582,0.625,3.314,0.833,5.029c-0.888,0.702-1.229,3.021-1.588,4.294c-0.799,2.803-1.508,5.633-2.083,8.566
			c-0.057-1.765-0.084-3.533-0.087-5.317c-0.001-3.238-0.02-6.676,0.504-9.818c0.255-1.506,0.352-3.119,0.563-4.646
			C46.581,71.227,46.717,70.638,46.855,70.053 M43.408,75.299c0.105-0.15,0.21-0.303,0.313-0.45c0.818-1.18,1.604-2.405,2.39-3.635
			c-0.04,0.139-0.08,0.275-0.113,0.413c-0.431,1.725-0.812,3.474-1.238,5.196c-0.744,2.996-1.263,6.048-1.478,9.249
			c-0.004-1.128-0.02-2.254-0.057-3.365C43.141,80.216,43.311,77.764,43.408,75.299 M43.159,75.654
			c-0.133,1.244-0.337,2.482-0.546,3.718c-0.03-0.83-0.063-1.659-0.1-2.488c-0.003-0.094-0.011-0.188-0.015-0.281
			C42.718,76.288,42.939,75.971,43.159,75.654 M40.242,79.889c-0.009,4.93,0.076,9.87,0.088,14.79
			c0.005,1.987,0.006,3.975,0.002,5.958c-0.047,0.806-0.083,1.609-0.111,2.412c-0.446-2.772-0.834-5.564-1.152-8.372
			c-0.415-3.703-0.812-7.438-1.163-11.186C38.667,82.259,39.452,81.066,40.242,79.889 M34.257,89.878
			c0.14,1.175,0.271,2.352,0.403,3.529c0.509,4.531,0.928,9.091,0.98,13.687c0.017,1.449,0.001,2.889-0.034,4.321
			c-0.392-0.953-0.775-1.908-1.146-2.879c-0.009-0.825-0.021-1.646-0.04-2.473c-0.089-3.746-0.292-7.479-0.625-11.196
			c-0.104-1.152-0.205-2.324-0.317-3.495C33.735,90.868,33.996,90.37,34.257,89.878 M31.545,95.314
			c0.083,1.848,0.149,3.686,0.208,5.512c-0.373-1.227-0.723-2.455-1.041-3.696C30.984,96.52,31.264,95.919,31.545,95.314
			 M30.917,86.194c0.121,1.257,0.228,2.524,0.319,3.797c-0.32,0.594-0.638,1.19-0.951,1.792
			C30.504,89.922,30.731,88.062,30.917,86.194 M20.297,96.195c0.188,3.069,0.353,6.142,0.39,9.246
			c0.02,1.659-0.021,3.309-0.109,4.944c-0.12-1.984-0.182-3.976-0.216-5.979C20.323,101.683,20.298,98.933,20.297,96.195"/>
		<path clip-path="url(#SVGID_6_)" fill="#579F32" d="M158.874,77.825c0.071,2.66,0.517,5.28,0.517,7.946
			c-0.004,2.919,0.147,5.86,0.158,8.784c0.021,4.627,0.157,9.265,0.086,13.895c-0.1-0.286-0.204-0.57-0.302-0.86
			c-0.108-1.164-0.212-2.322-0.323-3.472c-0.615-6.406-1.236-12.861-1.732-19.29c-0.218-2.814-0.69-5.587-1.185-8.313
			c-0.237-1.31-0.54-2.676-0.813-4.056c0.044-0.623,0.087-1.248,0.136-1.874c0.258-3.294,0.338-7.277,1.253-10.302
			c0.023-0.077-0.041-0.169-0.081-0.099c-1.188,2.153-1.749,5.386-2.191,8.123c-0.589,3.663-1.341,7.205-1.708,10.962
			c-0.683,6.987,0.199,14.183,1.674,20.81c0.004,0.022,0.01,0.044,0.015,0.068c0.13,2.064,0.138,4.16,0.155,6.144
			c0.024,2.865-0.005,5.743-0.082,8.618l2.473-0.016c0.013-1.256,0.017-2.514-0.001-3.769c0.127,1.249,0.23,2.505,0.305,3.767
			l4.959-0.034c-0.079-0.176-0.157-0.347-0.233-0.521c0.109-1.378,0.175-2.762,0.213-4.157c0.14,1.562,0.297,3.117,0.459,4.676
			l2.58-0.019c-0.302-2.835-0.592-5.672-0.859-8.509c-0.093-0.967-0.181-1.93-0.261-2.897c0.435,2.255,0.948,4.485,1.488,6.7
			c-0.031,1.566-0.049,3.136-0.056,4.705l5.108-0.036c0.11-1.917,0.213-3.837,0.321-5.753c-0.027,1.912,0.016,3.829,0.125,5.75
			l11.542-0.078c-0.279-1.007-0.55-2.02-0.799-3.043c-0.172-3.127-0.145-6.3,0.011-9.453c0.259,0.886,0.53,1.768,0.813,2.648
			c0.546,1.666,1.126,3.311,1.732,4.932c0,0.889-0.006,1.774-0.018,2.66c-0.616-1.875-1.169-3.804-1.438-5.744
			c-0.054-0.396-0.391-0.251-0.415,0.09c-0.17,2.442,0.39,4.807,0.8,7.129c0.046,0.258,0.096,0.515,0.146,0.775l12.259-0.085
			c-0.172-1.234-0.318-2.479-0.429-3.728c0.12-4.603,0.111-9.22,0.093-13.808l-0.001-0.203c0.07-1.249,0.144-2.501,0.207-3.75
			c0.075,4.566,0.478,9.112,1.062,13.618c0.02,1.703,0.094,3.402,0.221,5.086c0.07,0.937,0.158,1.858,0.254,2.775l3.576-0.025
			c-0.602-2.866-1.127-5.772-1.541-8.721c-0.039-3.339,0.104-6.679,0.433-9.974c0.281-2.82,0.502-5.683,0.857-8.483
			c0.161-1.269,0.282-2.559,0.415-3.838c0.103-1.003,0.241-3.454,0.836-4.458c0.062,0.515,0.123,1.03,0.193,1.539
			c-0.262,1.514-0.485,3.038-0.634,4.645c-0.282,2.975-0.279,5.994-0.402,8.985c-0.264,6.154,0.553,12.697,1.392,18.694
			c0.075,0.535,0.159,1.066,0.244,1.599l3.86-0.025c-0.004-0.021-0.009-0.037-0.013-0.059c0.042-1.262,0.063-2.536,0.067-3.817
			c0.02,0.128,0.043,0.253,0.066,0.379c-0.011,1.166,0.013,2.329,0.047,3.495l5.598-0.036c-0.023-0.955-0.05-1.909-0.091-2.862
			c0.164,0.958,0.348,1.909,0.54,2.858l10.046-0.068c0.084-0.901,0.182-1.813,0.265-2.727c0.185,0.912,0.381,1.813,0.586,2.721
			l5.9-0.041c-0.353-1.357-0.724-2.702-1.107-4.024c-0.356-1.879-0.666-3.74-0.525-3.761c0.387-0.059,0.388-1.004-0.006-0.958
			c-0.352,0.043-0.538,0.374-0.636,0.83c-0.008-0.027-0.015-0.055-0.024-0.086c0.164-2.046,0.368-4.094,0.627-6.129
			c0.285-2.254,0.655-4.484,1.079-6.693c0.463,3.356,0.996,6.691,1.573,9.972c0.157,0.892,0.316,1.779,0.478,2.668
			c-0.234-0.21-0.611,0.112-0.495,0.589c0.6,2.474,1.003,5.005,1.257,7.578l6.664-0.046c-0.218-1.544-0.448-3.081-0.685-4.611
			c-0.255-1.635-0.514-3.264-0.781-4.891c0.071-0.256,0.155-0.508,0.26-0.752c0.194-0.444-0.254-0.84-0.456-0.438
			c-0.81-4.88-1.688-9.735-2.665-14.543c-0.604-2.979-1.335-5.875-2.058-8.782c0.198-0.763,0.396-1.521,0.593-2.275
			c0.402-1.542,0.802-3.092,1.191-4.65c0.432,3.02,0.777,6.021,1.106,9.088c0.741,6.972,1.453,13.942,2.282,20.898
			c0.438,3.645,0.868,7.295,1.25,10.956l4.688-0.033c-0.067-0.358-0.141-0.713-0.204-1.072c-0.001-3.004,0.066-6.009,0.15-8.991
			c0.077-2.604,0.2-5.208,0.376-7.806c0.39,2.692,0.81,5.368,1.287,8.023c0.08,2.128,0.359,4.308,0.427,6.417
			c0.033,1.139,0.067,2.275,0.095,3.415l9.181-0.063c-0.204-1.046-0.414-2.084-0.624-3.101c-0.067-0.887-0.123-1.781-0.156-2.678
			c0.127,0.953,0.261,1.902,0.402,2.848c0.147,0.98,0.31,1.958,0.483,2.931l5.767-0.039c-0.332-1.828-0.65-3.66-0.948-5.503
			c0.1-1.187,0.198-2.374,0.304-3.563c0.589,2.977,1.051,6.007,1.455,9.059l7.751-0.053c-0.304-1.598-0.608-3.197-0.922-4.789
			c0.021-1.221,0.041-2.437,0.053-3.657c0.009-0.617,0.015-1.237,0.021-1.857c0.74,3.382,1.375,6.819,1.912,10.296l6.312-0.042
			c-0.653-3.341-1.292-6.685-1.983-10.005c-0.131-0.618-0.259-1.229-0.396-1.84c0.833,2.992,1.683,5.99,2.576,8.938
			c0.293,0.971,0.596,1.936,0.899,2.898l9.831-0.068c-0.247-1.853-0.505-3.7-0.771-5.541c-1.115-7.692-2.404-15.403-4.189-22.799
			c-0.111-0.877-0.227-1.753-0.353-2.625c0.482,2.036,0.962,4.077,1.436,6.122c1.572,6.757,3.041,13.582,4.565,20.365
			c0.149,0.648,0.292,1.303,0.433,1.957c-0.009,0.401-0.021,0.806-0.033,1.208c-0.014,0.433-0.034,0.87-0.05,1.308l5.253-0.038
			c0.031-0.42,0.064-0.84,0.095-1.257c0.074,0.42,0.147,0.836,0.224,1.256l2.154-0.014c-0.054-0.233-0.105-0.464-0.158-0.698
			c-0.587-2.728-1.16-5.487-1.705-8.259c0.018-0.319,0.039-0.64,0.055-0.959c0.617,2.709,1.224,5.422,1.819,8.144
			c0.127,0.593,0.253,1.18,0.378,1.77l2.615-0.019c-0.084-0.354-0.168-0.711-0.254-1.063c-0.284-3.932-0.45-7.868-0.603-11.807
			c0.187,0.843,0.368,1.685,0.549,2.526c0.741,3.431,1.463,6.868,2.119,10.331l5.16-0.036c-0.224-1.729-0.445-3.455-0.647-5.19
			c-0.774-6.656-1.493-13.354-2.464-19.956c-0.506-3.43-1.113-6.804-1.721-10.188c-0.147-0.805-1.547-8.118-1.695-8.084
			c0.118-0.027,0.115-0.352-0.003-0.374c-0.039-0.01-0.075-0.019-0.112-0.027c-0.082-0.018-0.185,0.057-0.177,0.213
			c0.755,11.579,2.131,23.146,3.288,34.643c0.262,2.614,0.545,5.225,0.831,7.835c-0.165-0.835-0.327-1.666-0.5-2.497
			c-0.134-1.057-0.266-2.116-0.396-3.173c-0.804-6.674-1.47-13.393-2.266-20.066c-0.431-3.601-0.804-7.232-1.135-10.855
			c-0.163-1.778-0.365-3.544-0.512-5.328c-0.074-0.937-0.486-3.254-0.138-4.123c0.071-0.177-0.104-0.39-0.19-0.224
			c-0.227,0.44-0.208,0.851-0.192,1.415c0.044,1.709,0.015,3.406,0.093,5.118c0.183,3.968,0.332,7.938,0.62,11.896
			c0.261,3.587,0.556,7.166,0.872,10.739c-0.691-2.955-1.389-5.906-2.073-8.867c-0.176-2.399-0.392-4.796-0.683-7.187
			c-0.019-0.147-0.175-0.15-0.19,0.002c-0.081,0.986-0.092,1.989-0.076,3.001c-0.152-0.681-0.307-1.355-0.456-2.034
			c-0.183-0.838-0.37-1.668-0.563-2.498c0.003-0.091,0.008-0.185,0.011-0.274c0.072-1.587,0.121-3.188,0.237-4.769
			c0.096-1.302,0.013-5.242,1.012-5.938c0.075-0.052,0.019-0.243-0.057-0.208c-1.152,0.562-1.365,4.493-1.548,6.021
			c-0.1,0.828-0.198,1.654-0.294,2.479c-0.534-2.184-1.088-4.354-1.657-6.521c-0.449-1.696-0.837-3.479-1.348-5.121
			c-0.285-0.908-0.551-1.823-0.828-2.737c-0.324-1.071-0.899-2.056-1.149-3.171c-0.043-0.195-0.238-0.113-0.2,0.089
			c0.264,1.39,0.832,2.65,1.117,4.06c0.39,1.921,0.841,3.908,1.079,5.884c0.484,4.008,1.287,8.108,1.962,12.051
			c0.092,0.544,0.195,1.087,0.29,1.625c-0.127,1.063-0.251,2.122-0.379,3.182c-0.237,1.984-0.449,3.975-0.647,5.974
			c-0.574-1.83-1.166-3.647-1.746-5.472c-0.255-0.79-0.525-1.617-0.813-2.446c0.001-0.748,0.101-1.379,0.391-1.643
			c0.141-0.129,0.014-0.445-0.127-0.336c-0.301,0.233-0.461,0.666-0.545,1.182c-0.072-0.195-0.146-0.392-0.221-0.586
			c-0.138-1.609-0.283-3.218-0.379-4.82c0.034,0.07,0.063,0.141,0.097,0.218c0.025,0.055,0.092,0.021,0.077-0.053
			c-0.134-0.458-0.214-0.939-0.238-1.448c-0.017-0.328-0.316-0.326-0.326,0.004c-0.039,1.314-0.086,2.627-0.135,3.942
			c-0.384-0.817-0.796-1.576-1.24-2.231c-0.095-0.142-0.267,0.049-0.186,0.228c0.553,1.202,0.974,2.611,1.344,4.057
			c-0.16,3.912-0.325,7.827-0.374,11.751c-0.017,1.569-0.035,3.139-0.054,4.708c-1.142-5.383-1.927-10.208-1.177-10.509
			c0.17-0.067,0.096-0.453-0.072-0.403c-1.118,0.333-0.17,5.763-0.095,6.887c0.051,0.714,0.11,1.429,0.181,2.143
			c-0.56-2.327-1.127-4.646-1.705-6.954c-0.871-3.479-1.814-6.907-2.942-10.199c-0.479-1.413-1.08-2.74-1.628-4.09
			c-0.203-0.507-0.453-0.953-0.716-1.379c0.137-1.702,0.208-3.531-0.221-4.926c-0.044-0.15-0.206-0.043-0.167,0.115
			c0.236,0.988-0.223,2.578-0.399,3.574c-0.19-0.307-0.374-0.621-0.541-0.957c-0.006-0.02-0.011-0.039-0.02-0.059
			c-0.035-0.067-0.072-0.132-0.107-0.199c-0.125-0.229-0.309,0.067-0.245,0.298c0.211,0.724,0.465,1.4,0.709,2.092
			c-0.207,1.181-0.433,2.357-0.687,3.511c-0.62,2.759-0.966,5.746-1.252,8.652c-0.108-1.066-0.217-2.13-0.328-3.196
			c-0.175-1.711-0.338-3.474-0.447-5.198c-0.112-1.715-0.47-4.05-0.166-5.727c0.051-0.288-0.215-0.381-0.279-0.118
			c-0.281,1.099-0.194,2.34-0.22,3.511c-0.037,1.804-0.069,3.604-0.019,5.405c0.094,3.403,0.193,6.794,0.405,10.185
			c0.016,0.258,0.037,0.509,0.054,0.764c-0.805-1.958-1.616-3.914-2.448-5.842c0.083-2.442,0.194-4.885,0.443-7.294
			c0.269-2.548,0.53-5.929,1.866-7.664c0.08-0.104-0.03-0.329-0.115-0.23c-1.064,1.243-1.513,3.159-1.966,5.049
			c-0.604,2.503-0.95,5.276-1.176,7.961c-0.471-1.061-0.945-2.117-1.43-3.159c-0.426-0.915-0.867-1.804-1.314-2.688
			c-0.172-2.754-0.297-5.513-0.35-8.277c-0.004-0.282-0.275-0.28-0.279,0.003c-0.019,2.329-0.045,4.643-0.052,6.947
			c-0.735-1.405-1.487-2.786-2.243-4.17c-0.204-0.374-0.417-0.736-0.629-1.099c-0.069-1.591-0.106-3.182-0.092-4.774
			c0.001-0.263-0.25-0.256-0.257,0.001c-0.041,1.372-0.054,2.742-0.054,4.107c-0.453-0.733-0.913-1.462-1.355-2.209
			c-0.194-0.317-1.289-2.512-1.264-2.515c0.078-0.011,0.077-0.185-0.001-0.194c-0.08-0.012-0.157-0.021-0.233-0.032
			c-0.055-0.007-0.09,0.091-0.079,0.163c0.137,0.863,0.602,1.663,0.923,2.393c0.664,1.496,1.252,3.061,1.892,4.578
			c0.044,0.103,0.088,0.21,0.131,0.317c0.054,4.36,0.224,8.711,0.24,13.095c-0.212-0.837-0.425-1.669-0.641-2.499
			c-0.705-2.701-1.5-5.536-2.51-7.991c-0.523-1.273-0.925-2.67-1.463-3.935c-0.189-0.446-1.596-3.209-1.455-3.722
			c0.032-0.114-0.064-0.204-0.107-0.101c-0.11,0.261-0.15,0.34-0.037,0.674c0.389,1.157,0.743,2.294,1.052,3.515
			c0.783,3.103,1.373,6.275,2.063,9.426c0.513,2.325,0.994,4.669,1.475,7.018c-0.658,0.356-0.41,1.534-0.272,2.376
			c0.425,2.559,1.167,5.021,1.816,7.475c-0.02,1.345-0.044,2.691-0.075,4.04c-0.091-0.48-0.182-0.959-0.274-1.438
			c-1.343-7.018-2.59-14.078-3.929-21.099c-0.695-3.656-1.49-7.273-2.196-10.929c-0.084-0.427-0.166-0.861-0.254-1.3
			c0-0.071-0.002-0.142-0.002-0.208c-0.037-0.441-0.041-0.883-0.012-1.327c-0.04-0.093-0.072-0.17-0.101-0.234
			c0.029-0.015,0.054-0.039,0.06-0.091c0.004-0.056,0.012-0.114,0.019-0.176c0.028-0.229-0.17-0.31-0.223-0.095
			c-0.031,0.141-0.057,0.289-0.087,0.434c-0.439-2.066-0.945-4.143-1.602-5.966c-0.075-0.213-0.27-0.023-0.201,0.19
			c0.748,2.341,1.123,5.063,1.488,7.684c-0.26,2.079-0.327,4.323-0.435,6.329c-0.167,3.138-0.339,6.234-0.341,9.373
			c-0.535-1.68-1.095-3.339-1.669-4.993c-0.006-0.994-0.009-1.988-0.006-2.979c0.011-3.222-0.177-7.334,0.573-10.348
			c0.027-0.104-0.084-0.172-0.114-0.072c-0.7,2.384-0.7,5.423-0.834,8.009c-0.066,1.271-0.121,2.542-0.166,3.813
			c-0.554-1.544-1.26-3.176-1.852-4.864c0.112-0.888,0.264-1.751,0.482-2.577c0.063-0.234-0.15-0.442-0.226-0.202
			c-0.196,0.652-0.365,1.33-0.513,2.022c-0.471-1.458-0.833-2.952-0.916-4.478c-0.011-0.215-0.223-0.218-0.215,0.003
			c0.054,1.958,0.492,3.689,0.941,5.439c-0.345,1.911-0.545,3.913-0.685,5.854c-0.29,3.982-0.56,7.924-0.674,11.934
			c-0.021,0.743-0.032,1.49-0.032,2.233c-0.262-0.926-0.519-1.86-0.764-2.801c0.124-2.913,0.166-5.842,0.441-8.736
			c0.098-1.025,0.241-2.073,0.318-3.107c0.101-1.39,0.052-3.718,0.884-4.646c0.095-0.105,0.009-0.35-0.094-0.248
			c-0.975,0.922-1.181,3.163-1.376,4.775c-0.175,1.453-0.585,2.871-0.774,4.34c-0.149,1.176-0.31,2.342-0.453,3.517
			c-0.626-2.493-1.233-5.015-1.717-7.568c-0.624-3.303-1.704-8.389-0.499-11.615c0.064-0.162-0.095-0.299-0.16-0.147
			c-0.901,2.107-0.795,5.005-0.778,7.455c0.024,3.444,0.554,6.873,1.082,10.2c0.419,2.654,0.92,5.248,1.484,7.801
			c-0.088,1.119-0.173,2.239-0.25,3.359c-0.272-0.969-0.55-1.934-0.844-2.891c-0.784-2.566-1.616-5.604-2.769-7.821
			c-0.382-0.734-0.723-1.56-1.052-2.392c0.495-3.095,1.083-6.139,1.576-9.231c0.282-1.788,0.641-3.599,1.046-5.324
			c0.281-1.187,0.626-3.678,1.513-4.118c0.062-0.029,0.051-0.179-0.015-0.177c-1.319,0.04-1.852,3.157-2.266,4.664
			c-1.023,3.708-1.93,7.494-2.72,11.344c-0.032,0.158-0.064,0.318-0.095,0.478c-0.592-1.398-1.299-3.096-1.474-4.675
			c-0.023-0.239-0.264-0.175-0.259,0.059c0.04,2.233,0.803,4.313,1.387,6.37c-0.302,1.554-0.584,3.106-0.851,4.667
			c-0.871-3.738-1.772-7.466-2.504-11.259c-0.044-0.229-0.268-0.132-0.229,0.102c0.832,4.896,1.487,9.864,2.151,14.831
			c-0.586,3.896-1.045,7.829-1.34,11.844c-1.531-12.023-2.901-24.733-3.411-36.604c0.005,0.166,0.16,0.165,0.163-0.001
			c0.003-0.062,0.003-0.122,0.006-0.185c0.003-0.153-0.121-0.17-0.167-0.069c-0.27,0.592-0.166,1.262-0.193,1.982
			c-0.071,1.748-0.15,3.492-0.11,5.24c0.081,3.485,0.205,7.138,0.08,10.616c-0.063,1.753,0.118,3.684,0.195,5.441
			c0.063,1.504,0.157,3.001,0.259,4.494c-0.226-1.41-0.462-2.817-0.715-4.213c-0.563-3.127-1.103-6.273-1.626-9.418
			c-0.25-1.514-0.618-2.971-0.98-4.425c-0.032-0.134-0.235-0.76-0.443-1.492c0.336-1.388,0.66-2.779,0.954-4.187
			c0.582-2.763,1.558-5.777,1.625-8.729c-0.001-0.079-0.084-0.1-0.092-0.017c-0.494,3.846-1.889,7.571-2.946,11.086
			c-0.074-0.414-0.095-0.736-0.02-0.855c0.077-0.127-0.023-0.338-0.12-0.244c-0.319,0.322-0.253,1.17-0.122,1.964
			c-0.672,2.226-1.354,4.448-2.025,6.679c-0.316-1.251-0.663-2.494-1.045-3.695c-0.336-1.068-0.835-2.351-1.129-3.651
			c1.4-3.756,2.917-7.397,4.361-11.113c0.707-1.818,1.204-3.778,1.863-5.632c0.65-1.838,1.29-4.347,2.46-5.454
			c0.059-0.055,0.005-0.188-0.052-0.142c-1.066,0.822-1.357,2.087-2.06,3.487c-0.832,1.655-1.442,3.506-2.123,5.313
			c-1.391,3.675-3.135,7.079-4.736,10.58c-0.054-0.013-0.112,0.026-0.138,0.129c-0.021,0.099-0.04,0.196-0.058,0.298
			c-0.304,0.674-0.604,1.348-0.892,2.034c-0.225,0.532-0.444,1.067-0.664,1.608c-0.152-0.566-0.301-1.131-0.448-1.701
			c-0.12-0.471-0.304-0.944-0.451-1.402c-0.107-0.335-0.655-0.496-0.175-0.329c0.052,0.021,0.08-0.089,0.037-0.133
			c-0.099-0.142-0.196-0.289-0.294-0.433c-0.072-0.146-0.239,0.012-0.195,0.182c0.428,1.674,0.75,3.38,1.011,5.11
			c-0.66,1.657-1.296,3.341-1.906,5.048c-0.023-0.607-0.046-1.212-0.067-1.818c-0.094-2.67-0.721-6.188-0.026-8.688
			c0.038-0.142-0.088-0.262-0.132-0.12c-0.667,1.996-0.469,4.219-0.537,6.424c-0.062,2.153-0.067,4.326-0.044,6.499
			c-0.93,2.715-1.804,5.482-2.631,8.281c-0.072-0.197-0.145-0.395-0.218-0.593c-0.68-4.862-1.397-10.333-1.217-10.364
			c0.059-0.013,0.059-0.135,0-0.147c-0.04-0.006-0.082-0.011-0.118-0.019c-0.035-0.004-0.054,0.048-0.06,0.094
			c-0.124,2.485,0.065,5.041,0.272,7.549c-0.934-2.242-2.026-4.354-3.214-6.268c-0.264-0.427-0.537-0.892-0.824-1.362
			c-0.157-1.952-0.292-3.909-0.445-5.853c-0.319-4.072-0.674-8.331,0.001-12.345c0.021-0.114-0.084-0.155-0.107-0.046
			c-0.696,3.461-0.718,7.262-0.572,10.867c0.048,1.15,0.087,2.302,0.127,3.454c-0.034,0.003-0.067,0.027-0.092,0.088
			c-0.174,0.447-0.327,0.915-0.473,1.393c-0.575-0.804-1.185-1.51-1.824-1.957c-0.088-0.063-0.183,0.063-0.131,0.205
			c0.042,0.12,0.084,0.239,0.126,0.36c0.057,0.158,0.197,0.019,0.15-0.14c-0.233-0.774,0.38,0.939,0.408,1.002
			c0.241,0.548,0.542,1.062,0.798,1.591c0.042,0.08,0.077,0.168,0.114,0.25c-0.195,0.774-0.375,1.568-0.554,2.355
			c-0.355-1.249-0.698-2.502-1.054-3.748c-0.198-0.684-1.706-3.968-1.276-4.595c0.057-0.085-0.017-0.223-0.083-0.168
			c-0.777,0.677,0.227,2.839,0.436,3.764c0.54,2.372,0.946,4.819,1.362,7.254c-0.312,1.166-0.535,2.475-0.716,3.808
			c-0.902-2.62-1.991-5.127-3.103-7.551c-0.166-1.583-0.347-3.159-0.523-4.737c-0.138-1.28-0.543-3.615-0.27-4.955
			c0.032-0.157-0.107-0.224-0.161-0.104c-0.294,0.663-0.21,1.313-0.242,2.122c-0.058,1.573,0.021,3.121,0.06,4.692
			c0.004,0.19,0.017,0.377,0.021,0.569c-0.12-0.255-0.241-0.511-0.361-0.765c-0.046-0.108-0.158-0.01-0.112,0.109
			c0.172,0.436,0.332,0.882,0.494,1.328c0.095,2.931,0.267,5.87,0.491,8.779c-0.526-2.191-1.115-4.35-1.765-6.472
			c-0.372-1.196-0.772-2.376-1.193-3.54c-0.005-0.681-0.018-1.361-0.026-2.043c-0.014-1.473-0.011-2.932,0.019-4.406
			c0.029-1.551,0.345-2.98,0.417-4.507c0.008-0.181-0.161-0.171-0.176,0.001c-0.111,1.535-0.505,2.962-0.618,4.51
			c-0.112,1.555-0.218,3.102-0.274,4.661c-0.747-1.945-1.539-3.853-2.335-5.728c-0.127-0.293-0.255-0.58-0.382-0.872
			c0.08-0.092,0.158-0.188,0.243-0.278c0.058-0.058,0.004-0.187-0.05-0.141c-0.094,0.078-0.188,0.152-0.279,0.223
			c-0.55-1.225-1.125-2.418-1.699-3.619c-0.775-1.612-1.689-3.03-2.32-4.798c-0.032-0.101-0.131-0.011-0.095,0.092
			c1.008,3.038,2.433,5.695,3.408,8.795c0.007,0.024,0.015,0.049,0.023,0.071c-0.517,0.41-1.008,0.833-1.488,1.402
			c-0.057-0.074-0.167-0.06-0.178,0.08c-0.006,0.06-0.02,0.12-0.026,0.18c-0.049,0.062-0.099,0.119-0.147,0.184
			c-1.193,1.635-2.458,3.192-3.708,4.734c-0.261,0.326-0.526,0.646-0.79,0.971c-0.132-2.262-0.314-4.51-0.614-6.744
			c-0.199-1.494-0.438-2.937-0.722-4.4c-0.268-1.407-0.819-2.668-1.083-4.041c-0.034-0.166-0.21-0.14-0.2,0.044l0.011,0.185
			c0.003,0.07,0.031,0.104,0.062,0.122c-0.025,0.093-0.04,0.19-0.026,0.249c0.123,0.566,0.217,1.083,0.281,1.676
			c0.172,1.619,0.307,3.221,0.316,4.861c0.021,3.16-0.034,6.311-0.095,9.472c-0.006,0.375-0.007,0.747-0.014,1.121
			c-0.911,1.12-1.817,2.253-2.692,3.435c-0.241-2.896-0.454-5.79-0.611-8.678c-0.439-7.905-1.602-15.705-2.051-23.592
			c-0.008-0.104-0.104-0.105-0.101,0.002c-0.018,3.801,0.128,7.67,0.191,11.48c0.076,4.308-0.043,8.619,0.052,12.929
			c0.001,0.061,0.005,0.122,0.005,0.181c-0.35-1.752-0.726-3.49-1.142-5.207c-0.428-1.765-0.868-3.51-1.319-5.266
			c-0.388-1.535-1.349-2.897-1.1-4.715c0.021-0.138-0.089-0.202-0.14-0.092c-0.709,1.608,0.055,4.343,0.304,6.057
			c0.569,3.924,1.032,7.887,1.606,11.81c0.457,3.138,0.914,6.279,1.364,9.422c-0.083,0.13-0.161,0.264-0.243,0.393
			c-0.314-1.047-0.583-2.124-0.735-3.29c-0.021-0.158-0.153-0.097-0.161,0.035c-0.115,1.552,0.011,2.924,0.204,4.381
			c-0.249,0.414-0.497,0.83-0.743,1.249c-0.116-0.803-0.244-1.593-0.397-2.372c-0.413-2.104-0.807-4.203-1.242-6.289
			c-0.008-0.633-0.026-1.268-0.062-1.901c-0.005-0.095-0.087-0.095-0.094,0.001c-0.011,0.31-0.032,0.62-0.051,0.928
			c-0.239-1.112-0.492-2.22-0.77-3.321c-0.348-1.387-0.686-2.751-1.084-4.109c-0.184-0.616-0.368-1.232-0.549-1.853
			c-0.068-0.354-0.181-0.673-0.336-0.951c-0.085-0.129-0.16-0.229-0.219-0.312c0.021-0.021,0.034-0.054,0.023-0.104
			c-0.023-0.131-0.047-0.259-0.069-0.388c-0.036-0.198-0.236-0.159-0.23,0.051c0.031,0.934,0.33,1.758,0.487,2.665
			c0.231,1.317,0.487,2.63,0.74,3.938c0.62,3.191,0.992,6.49,1.407,9.755c-0.372,2.414-0.853,4.8-1.338,7.179
			c-0.294-1.733-0.549-3.491-0.766-5.295c-0.75-6.235-1.28-12.583-1.94-18.83c-0.024-0.218-0.208-0.133-0.222,0.051
			c-0.223,2.95-0.024,6.102-0.074,9.084c-0.049,3.166-0.082,6.37,0.083,9.534c-0.175-0.749-0.359-1.496-0.562-2.241
			c-0.381-1.394-0.812-2.74-1.252-4.093c-0.154-0.473-1.048-3.915-1.057-3.912c0.087-0.014,0.085-0.198-0.001-0.21
			c-0.039-0.008-0.077-0.014-0.117-0.019c-0.042-0.007-0.08,0.062-0.08,0.126c0.089,2.265,0.578,4.287,0.865,6.505
			c0.132,0.995,0.246,1.996,0.355,2.999c-0.044-0.282-0.09-0.563-0.138-0.844c-0.603-3.567-1.155-7.128-1.88-10.647
			c-0.237-1.145-0.628-5.036-1.601-5.449c-0.083-0.034-0.14,0.159-0.059,0.225c0.599,0.485,0.729,3.943,0.786,4.648
			c0.14,1.595,0.282,3.203,0.434,4.798c0.39,3.991,0.599,8.012,0.991,12c0.511,5.249,1.19,10.383,2.074,15.462
			c-0.667,1.813-1.248,3.713-1.764,5.663c0.23-6.546-0.341-13.262-0.995-19.697c-0.359-3.52-0.833-6.89-1.431-10.316
			c-0.643-3.699-1.541-7.121-1.712-11.004c-0.008-0.164-0.165-0.166-0.166,0.001c-0.057,5.916,0.523,11.875,0.769,17.777
			c0.075,1.82,0.178,3.636,0.292,5.444c-0.43,3.114-0.816,6.237-1.09,9.371c0.241-5.838,0.298-11.726-0.003-17.535
			c-0.186-3.513-0.517-7.149-1.069-10.569c-0.282-1.744-0.428-3.522-0.77-5.242c-0.307-1.559-0.351-3.237-0.687-4.761
			c-0.033-0.157-0.186-0.091-0.157,0.07c0.443,2.686,0.399,5.82,0.525,8.578c0.155,3.422,0.345,6.903,0.232,10.332
			c-0.226,6.961-0.303,13.924-0.682,20.873c-0.133,2.422-0.269,4.845-0.411,7.27c-0.06-0.234-0.117-0.47-0.173-0.704
			c0.04-1.699,0.09-3.397,0.146-5.09c0.208-6.442,0.341-12.838,0.234-19.285c-0.05-3.033-0.39-6.032-0.496-9.056
			c-0.053-1.538-0.295-3.03-0.432-4.554c-0.083-0.96-0.502-3.348-0.07-4.313c0.037-0.084-0.044-0.182-0.089-0.109
			c-0.677,1.106-0.39,3.82-0.36,5.192c0.072,3.298-0.107,6.61-0.319,9.891c-0.368,5.688-0.587,11.4-0.828,17.109
			c-0.003-0.016-0.006-0.034-0.008-0.05c-1.086-6.188-1.732-12.682-2.206-19.039c-0.442-5.965-0.186-11.984-0.178-17.962
			c0-0.099-0.104-0.124-0.114-0.024c-0.506,5.229-0.98,10.42-1.238,15.691c-0.067-0.814-0.137-1.626-0.207-2.439
			c-0.113-1.307-0.236-2.606-0.367-3.914c-0.076-0.74-0.156-1.484-0.241-2.226c-0.102-0.866-0.586-2.337-0.376-3.197
			c0.021-0.102-0.072-0.147-0.103-0.07c-0.225,0.512-0.175,0.827-0.097,1.416c0.245,1.88,0.344,3.784,0.387,5.695
			c0.075,3.379,0.089,6.744-0.019,10.12c-0.06,1.952-0.078,3.919-0.069,5.892c-0.086-0.638-0.179-1.273-0.29-1.907
			c-0.255-1.494-0.522-2.929-0.839-4.399c-0.33-1.538-0.813-3.237-0.956-4.843C159.035,77.654,158.869,77.645,158.874,77.825
			 M154.862,82.492c0.072-2.141,0.18-4.272,0.315-6.404c0.076,0.626,0.146,1.249,0.191,1.874c0.241,3.246,0.25,6.404,0.269,9.663
			c0.017,2.939,0.106,5.878,0.239,8.812C155.085,91.897,154.701,87.183,154.862,82.492 M283.803,110.717
			c0.173,1.308,0.342,2.614,0.51,3.923c-0.146-0.53-0.296-1.056-0.451-1.581c-0.031-0.92-0.07-1.828-0.107-2.729
			C283.772,110.459,283.786,110.586,283.803,110.717 M294.81,90.226c0.02-0.496,0.042-0.994,0.065-1.491
			c0.458,2.305,0.943,4.595,1.436,6.881c-0.023,1.249-0.049,2.497-0.074,3.746c-0.043,1.794-0.065,3.594-0.073,5.397
			c-0.546-2.276-1.117-4.541-1.734-6.777C294.568,95.4,294.699,92.814,294.81,90.226 M290.8,95.739
			c0.28,2.92,0.632,5.832,1.029,8.732c-0.165,2.006-0.329,4.005-0.499,6.003c-0.037,0.435-0.075,0.878-0.114,1.317
			c-0.169-0.68-0.363-1.441-0.566-2.272c0.035-4.285-0.029-8.581-0.147-12.864c-0.058-2.033-0.126-4.063-0.221-6.091
			C290.438,92.294,290.638,94.019,290.8,95.739 M280.024,77.903c0.041,0.166,0.08,0.326,0.113,0.49
			c0.062,0.877,0.103,1.762,0.145,2.638c-0.102-0.343-0.198-0.681-0.303-1.019c-0.018-0.057-0.051-0.078-0.083-0.08
			C279.938,79.256,279.979,78.579,280.024,77.903 M279.539,86.043c0.111-1.857,0.212-3.719,0.322-5.576
			c0.199,0.778,0.365,1.577,0.506,2.396c0.003,0.003,0.003,0.01,0.003,0.01c0.147,2.679,0.25,5.356,0.387,8.035
			c0.25,4.812,0.373,9.628,0.493,14.449c-0.693-1.851-1.414-3.672-2.141-5.476C279.05,95.262,279.269,90.656,279.539,86.043
			 M273.682,93.585c0.842,2.138,1.684,4.27,2.532,6.396c0.161,0.399,0.314,0.797,0.476,1.193c0.024,1.875,0.092,3.749,0.212,5.631
			c0.028,0.364,0.057,0.722,0.081,1.084c-0.697-1.897-1.41-3.786-2.116-5.68c-0.043-0.117-0.622-1.542-1.229-3.201
			C273.639,97.202,273.651,95.395,273.682,93.585 M272.292,94.734c-0.137-0.65-0.15-1.089,0.031-1.149
			c0.013-0.006,0.021-0.016,0.031-0.022C272.331,93.954,272.312,94.345,272.292,94.734 M272.516,90.623
			c-0.052,0.844-0.097,1.686-0.142,2.528c-0.024-0.032-0.055-0.056-0.095-0.046c-1.01,0.196-0.476,2.879-0.107,4.409
			c-0.005,0.141-0.015,0.284-0.02,0.426c-0.118-0.421-0.238-0.842-0.359-1.261c-0.394-3.55-0.776-7.111-1.097-10.678
			C271.302,87.542,271.911,89.082,272.516,90.623 M269.429,82.782c0.024,0.063,0.047,0.124,0.07,0.188
			c0.029,2.288,0.084,4.581,0.189,6.893c0.018,0.36,0.036,0.722,0.057,1.081c-0.106,0.045-0.207,0.225-0.193,0.408
			c0.077,1.012,0.222,2.024,0.387,3.029c0.302,4.625,0.721,9.234,1.143,13.837c-0.309-1.582-0.625-3.159-0.953-4.731
			c-0.73-3.527-1.503-7.041-2.321-10.529c-0.046-1.826-0.11-3.648-0.207-5.47c-0.197-3.918-0.561-7.834-0.813-11.753
			C267.692,78.06,268.513,80.467,269.429,82.782 M263.874,102.501c0.084,0.481,0.164,0.964,0.249,1.444
			c0.598,3.377,1.229,6.741,1.879,10.096c-0.55-2.282-1.133-4.544-1.726-6.789c-0.267-1.014-0.528-2.032-0.792-3.05
			c0.006-0.804,0.076-1.475,0.279-1.545C263.825,102.634,263.86,102.572,263.874,102.501 M260.806,82.593
			c0.891,6.573,1.893,13.112,3.016,19.598c-0.029-0.039-0.066-0.07-0.112-0.075c-0.259-0.03-0.474,0.138-0.658,0.417
			c-0.549-2.132-1.097-4.266-1.654-6.396c-0.506-3.378-0.882-6.808-1.108-10.243c-0.225-3.476-0.327-6.943-0.479-10.421
			c-0.014-0.288-0.025-0.573-0.039-0.858C260.13,77.269,260.443,79.943,260.806,82.593 M259.042,96.809
			c0.071,0.546,0.149,1.093,0.232,1.639c-0.517-1.381-1.071-2.74-1.45-4.223h0.001c0.151,0.016,0.184-0.31,0.07-0.423
			c-0.103-0.104-0.204-0.205-0.307-0.306c-0.164-0.163-0.335,0.061-0.352,0.32c-0.095,1.585,0.419,3.44,0.696,4.953
			c0.198,1.077,0.376,2.165,0.563,3.25c-0.129,0.502-0.252,1.009-0.361,1.524c-0.728-5.557-1.196-11.163-1.438-16.824
			C257.459,90.095,258.24,93.457,259.042,96.809 M253.855,81.849c0.024-2.261-0.027-4.691,0.152-7.024
			c0.129,0.54,0.256,1.086,0.363,1.645c0.436,2.25,0.979,4.46,1.507,6.668c-0.012,0.858-0.018,1.717-0.017,2.577
			c0.006,3.627,0.158,7.266,0.431,10.883c-0.623-3.452-1.106-7.002-0.63-10.421c0.031-0.214-0.172-0.3-0.209-0.09
			c-0.632,3.621-0.611,7.503-0.44,11.309c-0.163,1.522-0.214,3.072-0.193,4.626c-0.037-0.115-0.076-0.235-0.114-0.354
			c-0.333-3.145-0.568-6.312-0.675-9.465C253.914,88.747,253.826,85.309,253.855,81.849 M251.315,98.664
			c0.458,1.752,0.946,3.494,1.455,5.226c0.133,1.521,0.293,3.037,0.472,4.542c-0.177-0.083-0.403,0.064-0.401,0.446
			c-0.001,0.135-0.001,0.268,0,0.4c-0.499-2.308-1.019-4.604-1.569-6.877C251.275,101.155,251.292,99.909,251.315,98.664
			 M244.566,86.015c0.567,2.156,1.219,4.288,1.778,6.438c1.044,4.023,2.001,8.084,2.907,12.18c-0.024,0.798-0.043,1.594-0.057,2.395
			c-0.052,2.862-0.072,5.729-0.04,8.59c-0.425-3.104-1.026-6.137-1.683-9.21c-0.123-0.573-0.67-0.336-0.576,0.257
			c0.014,0.078,0.023,0.157,0.035,0.238c-1.085-5.016-1.981-10.122-3.063-15.141C244.069,89.836,244.299,87.919,244.566,86.015
			 M233.871,104.32c0.471,3.087,0.953,6.173,1.404,9.272c-0.019,0.596-0.029,1.182-0.041,1.738
			c-0.136-0.997-0.308-1.975-0.514-2.955c-0.284-1.354-0.826-2.38-1.264-3.566c-0.084-0.425-0.17-0.854-0.255-1.283
			c-1.163-5.852-2.203-11.791-3.208-17.72c0.309-1.322,0.629-2.631,0.958-3.938C231.968,91.998,232.932,98.162,233.871,104.32
			 M228.592,73.634c0.035-0.099,0.072-0.193,0.109-0.291c0.207,1.133,0.497,2.251,0.687,3.248c0.376,1.961,0.7,3.941,1.021,5.926
			c-0.143,0.481-0.284,0.962-0.422,1.444c-0.206,0.725-0.405,1.447-0.609,2.17c-0.53-3.196-1.023-6.41-1.642-9.567
			c-0.02-0.11-0.049-0.217-0.068-0.326C227.971,75.364,228.279,74.497,228.592,73.634 M226.937,78.37
			c0.287,2.691,0.49,5.415,0.749,8.123c0.136,1.423,0.293,2.851,0.461,4.28c-0.831,3.271-1.577,6.568-2.186,9.953
			c-0.396-4.62-0.652-9.27-1.01-13.894c-0.049-0.627-0.092-1.259-0.13-1.89C225.498,82.731,226.203,80.54,226.937,78.37
			 M219.741,108.009c-0.111-0.528-0.223-1.054-0.33-1.577c0.12-0.594,0.238-1.182,0.362-1.771c0.267,1.874,0.413,3.793,0.469,5.729
			C220.074,109.585,219.905,108.795,219.741,108.009 M224.718,109.839c-0.037,0.406-0.073,0.814-0.112,1.226
			c-0.37-1.657-0.706-3.325-1.027-5.003c0.029,0.094,0.057,0.184,0.086,0.276C224.021,107.495,224.373,108.666,224.718,109.839
			 M223.895,88.074c0.104,3.893,0.233,7.783,0.452,11.666c-0.65-2.015-1.317-4.015-2.006-5.986
			C222.835,91.844,223.354,89.951,223.895,88.074 M220.81,99.981c0.38,3.483,0.837,6.905,1.414,10.272
			c-0.017,0.064-0.037,0.129-0.054,0.199c-0.067-0.544-0.148-1.081-0.241-1.61c-0.374-2.146-1.124-3.76-1.81-5.647
			c-0.005-0.017-0.015-0.026-0.022-0.039C220.331,102.094,220.565,101.037,220.81,99.981 M218.323,89.51
			c0.57,1.661,1.122,3.335,1.665,5.016c-0.474,1.722-0.936,3.452-1.375,5.192c-0.114,0.446-0.224,0.892-0.334,1.341
			c-0.021-0.112-0.048-0.222-0.069-0.332c-0.59-5.058-1.097-10.147-1.789-15.176c-0.089-0.631-0.164-1.267-0.235-1.899
			C216.958,85.548,217.654,87.555,218.323,89.51 M214.79,75.997c0.026,0.616,0.049,1.237,0.072,1.855
			c-0.136-0.215-0.279-0.427-0.42-0.636C214.55,76.792,214.665,76.383,214.79,75.997 M214.104,78.769
			c0.303,0.725,0.583,1.468,0.896,2.184c0.054,1.101,0.112,2.197,0.19,3.296c0.117,1.646,0.235,3.292,0.361,4.938
			c-0.62-2.439-1.22-4.896-1.889-7.303C213.769,80.845,213.916,79.78,214.104,78.769 M213.362,86.873
			c1.119,6.128,2.202,12.271,3.333,18.397c0.092,0.477,0.181,0.951,0.273,1.431c-0.534,2.435-1.027,4.886-1.479,7.354
			c0.031-1.505,0.035-3.007,0.007-4.51c-0.115-6.08-0.834-12.158-2.146-17.893c-0.043-0.184-0.091-0.367-0.132-0.55
			C213.253,89.693,213.304,88.285,213.362,86.873 M211.394,91.859c-0.143,1.352-0.25,2.7-0.33,4.048
			c-0.399-2.615-0.773-5.242-1.171-7.865c-0.314-2.086-0.554-4.216-0.781-6.342C210.065,84.953,210.817,88.369,211.394,91.859
			 M206.509,89.728c0.743,3.708,1.311,7.512,1.813,11.315c0.508,3.839,0.878,7.718,1.086,11.61c-0.046-0.151-0.09-0.31-0.133-0.468
			c-0.145-0.566-0.652-2.123-0.433-2.713c0.078-0.206-0.117-0.458-0.219-0.264c-0.551,1.038-0.311,2.767-0.184,4.009
			c0.021,0.221,0.044,0.442,0.066,0.66c-0.237-1.218-0.465-2.442-0.672-3.673c-0.03-0.872-0.046-1.746-0.04-2.627
			c0.008-0.732-0.265-2.782,0.165-3.294c0.126-0.152,0.092-0.496-0.089-0.498c-0.4-0.004-0.657,0.532-0.829,1.236
			c-0.897-6.564-1.408-13.22-1.583-19.92C205.831,86.628,206.193,88.162,206.509,89.728 M202.849,96.275
			c-0.25-3.422-0.522-6.806-0.518-10.172c0.209,1.964,0.354,3.966,0.548,5.901c0.503,5.05,0.799,10.072,0.913,15.15
			C203.399,103.547,203.111,99.917,202.849,96.275 M199.313,72.053c0.009-0.018,0.024-0.04,0.035-0.058
			c0.696-1.083,1.257-2.219,1.949-3.222c1.023,3.319,1.939,6.86,2.709,10.326c0.142,0.643,0.292,1.278,0.445,1.915
			c-0.046,1.741-0.077,3.483-0.084,5.227c-0.001,0.663,0.004,1.325,0.009,1.985c-0.271-1.374-0.583-2.73-0.947-4.053
			c-0.281-1.013-0.556-2.038-0.839-3.07c0.091-0.812,0.201-1.625,0.344-2.435c0.049-0.276-0.217-0.382-0.269-0.119
			c-0.11,0.555-0.216,1.098-0.322,1.637c-0.427-1.555-0.865-3.1-1.341-4.58c-0.054-0.163-0.233-0.045-0.189,0.125
			c0.411,1.582,0.625,3.314,0.833,5.029c-0.888,0.702-1.229,3.021-1.587,4.294c-0.799,2.803-1.508,5.633-2.084,8.566
			c-0.057-1.765-0.084-3.533-0.087-5.317c-0.002-3.238-0.021-6.676,0.504-9.818c0.255-1.506,0.352-3.119,0.563-4.646
			C199.038,73.227,199.174,72.638,199.313,72.053 M195.865,77.299c0.104-0.15,0.21-0.303,0.313-0.45
			c0.818-1.18,1.604-2.405,2.391-3.635c-0.04,0.139-0.08,0.275-0.114,0.413c-0.431,1.725-0.812,3.474-1.238,5.196
			c-0.745,2.996-1.263,6.048-1.478,9.249c-0.004-1.128-0.02-2.254-0.057-3.365C195.598,82.216,195.768,79.764,195.865,77.299
			 M195.616,77.654c-0.134,1.244-0.337,2.482-0.546,3.718c-0.03-0.83-0.063-1.659-0.1-2.488c-0.003-0.094-0.011-0.188-0.015-0.281
			C195.174,78.288,195.396,77.971,195.616,77.654 M192.698,81.889c-0.009,4.93,0.077,9.87,0.089,14.79
			c0.005,1.987,0.006,3.975,0.001,5.958c-0.047,0.806-0.083,1.609-0.11,2.412c-0.447-2.772-0.834-5.564-1.152-8.372
			c-0.414-3.703-0.812-7.438-1.162-11.186C191.124,84.259,191.909,83.066,192.698,81.889 M186.713,91.878
			c0.14,1.175,0.271,2.352,0.404,3.529c0.509,4.531,0.928,9.091,0.98,13.687c0.017,1.449,0.001,2.889-0.034,4.321
			c-0.391-0.953-0.775-1.908-1.146-2.879c-0.009-0.825-0.021-1.646-0.04-2.473c-0.088-3.746-0.292-7.479-0.625-11.196
			c-0.104-1.152-0.206-2.324-0.317-3.495C186.191,92.868,186.453,92.37,186.713,91.878 M184.002,97.314
			c0.083,1.848,0.149,3.686,0.208,5.512c-0.373-1.227-0.723-2.455-1.04-3.696C183.441,98.52,183.72,97.919,184.002,97.314
			 M183.374,88.194c0.121,1.257,0.227,2.524,0.319,3.797c-0.321,0.594-0.639,1.19-0.952,1.792
			C182.961,91.922,183.188,90.062,183.374,88.194 M172.754,98.195c0.187,3.069,0.353,6.142,0.389,9.246
			c0.021,1.659-0.021,3.309-0.109,4.944c-0.12-1.984-0.182-3.976-0.216-5.979C172.78,103.683,172.755,100.933,172.754,98.195"/>
	</g>
	<g id="ANE" display="none">
		<g display="inline">
			<defs>
				<rect id="SVGID_73_" x="1490.952" y="978.834" width="915.559" height="233.225"/>
			</defs>
			<linearGradient id="SVGID_8_" gradientUnits="userSpaceOnUse" x1="2037.7002" y1="1451.8486" x2="1850.0006" y2="699.9324">
				<stop  offset="0" style="stop-color:#432918"/>
				<stop  offset="0.7758" style="stop-color:#579F32"/>
			</linearGradient>
			<use xlink:href="#SVGID_73_"  overflow="visible" fill="url(#SVGID_8_)"/>
			<clipPath id="SVGID_10_">
				<use xlink:href="#SVGID_73_"  overflow="visible"/>
			</clipPath>
		</g>
	</g>
	<g id="AIDESEP" display="none">
	</g>
	<g id="CONAP" display="none">
	</g>
	<g id="EPS" display="none">
	</g>
	<g id="convocatoria" display="none">
	</g>
	<g id="proyectos_financiados" display="none">
	</g>
</g>
<g id="guias">
</g>
</svg>
